<svg width="63" height="63" viewBox="0 0 63 63" fill="none" xmlns="http://www.w3.org/2000/svg">
<path d="M62.0627 12.9596C59.8708 13.9309 57.5162 14.5871 55.0408 14.8838C57.595 13.3555 59.5058 10.9501 60.4168 8.11652C58.0172 9.54187 55.3909 10.5452 52.6521 11.0828C50.8103 9.11629 48.3709 7.81288 45.7125 7.37489C43.054 6.9369 40.3254 7.38885 37.9501 8.66056C35.5748 9.93227 33.6859 11.9526 32.5765 14.4079C31.4671 16.8631 31.1994 19.616 31.8148 22.239C26.9525 21.9949 22.1959 20.7311 17.8536 18.5296C13.5113 16.3282 9.68043 13.2383 6.6096 9.46052C5.5596 11.2718 4.95585 13.3718 4.95585 15.6083C4.95468 17.6216 5.45048 19.6042 6.39928 21.3799C7.34807 23.1557 8.72052 24.6699 10.3948 25.788C8.45307 25.7262 6.55414 25.2016 4.8561 24.2576V24.4151C4.8559 27.239 5.83268 29.9759 7.6207 32.1615C9.40872 34.3471 11.8978 35.8468 14.6657 36.4061C12.8644 36.8936 10.9759 36.9655 9.14272 36.6161C9.92365 39.0459 11.4448 41.1706 13.4933 42.6928C15.5418 44.2151 18.015 45.0586 20.5667 45.1054C16.235 48.5059 10.8854 50.3504 5.37847 50.3423C4.40297 50.3425 3.4283 50.2856 2.45947 50.1716C8.04935 53.7657 14.5564 55.6732 21.202 55.6658C43.6982 55.6658 55.9963 37.0335 55.9963 20.874C55.9963 20.349 55.9832 19.8188 55.9596 19.2938C58.3517 17.5638 60.4166 15.4216 62.0575 12.9675L62.0627 12.9596Z" fill="#241400"/>
</svg>
